<svg width="280" height="280" viewBox="0 0 280 280" fill="none" xmlns="http://www.w3.org/2000/svg">
<rect width="280" height="280" rx="32" fill="#C6BEAC"/>
<path fill-rule="evenodd" clip-rule="evenodd" d="M115.549 218.786L115.549 218.787L102.914 206.152C102.971 206.927 103 207.71 103 208.5C103 225.897 88.897 240 71.5 240C54.103 240 40 225.897 40 208.5C40 191.103 54.103 177 71.5 177C72.2899 177 73.073 177.029 73.8483 177.086L60.8627 164.101L60.8654 164.098C47.9585 150.931 40 132.895 40 113C40 72.6832 72.6832 40 113 40C132.895 40 150.931 47.9585 164.098 60.8654L164.1 60.863L164.491 61.2532C164.576 61.3384 164.662 61.4239 164.747 61.5095L177.086 73.849C177.029 73.0735 177 72.2901 177 71.5C177 54.103 191.103 40 208.5 40C225.897 40 240 54.103 240 71.5C240 88.897 225.897 103 208.5 103C207.71 103 206.927 102.971 206.151 102.914L218.492 115.255C218.577 115.339 218.661 115.423 218.745 115.508L218.786 115.549C231.898 128.746 240 146.927 240 167C240 207.317 207.317 240 167 240C146.927 240 128.746 231.898 115.549 218.786Z" fill="black"/>
</svg>
